Units are S.I. units (second, meters, Newtons, ...)
Angles are in degrees.
name walk
datarows 50
datacolumns 25
range 77.00000 25.00000
endheader
time Pelvis_PX Pelvis_PY Pelvis_PZ Pelvis_X Pelvis_Y Pelvis_Z FemurR_X FemurR_Y FemurR_Z TibiaR_X TibiaR_Y TibiaR_Z TalusR_X TalusR_Y TalusR_Z FemurL_X FemurL_Y FemurL_Z TibiaL_X TibiaL_Y TibiaL_Z TalusL_X TalusL_Y TalusL_Z
77.00000 1937.992 980.798 -16.085 -0.03656 -0.34510 10.59045 2.42849 -5.52709 25.85940 -3.86337 -20.90200 56.91810 -2.53733 20.23800 5.41430 0.96310 -7.18699 14.51900 2.34137 -3.91294 10.59090 -6.01998 5.97086 7.70328
78.00000 1945.795 981.928 -16.121 -0.03804 -0.33539 10.63425 2.62589 -5.14428 26.94170 -3.28715 -21.18410 55.27400 -1.98420 19.64640 6.30852 0.81483 -7.33358 13.59940 2.47625 -3.74133 9.99880 -5.94938 6.10772 8.03178
79.00000 1953.523 983.047 -16.130 -0.03889 -0.32358 10.71570 2.82648 -4.73496 27.96650 -2.71163 -21.43630 53.30550 -1.35099 18.97980 6.99784 0.66824 -7.48984 12.73420 2.60782 -3.53600 9.43409 -5.87359 6.20441 8.36094
80.00000 1961.342 984.226 -16.287 -0.03804 -0.30885 10.82515 3.03722 -4.32746 28.91220 -2.16377 -21.75320 51.01430 -0.65176 18.32710 7.51189 0.51758 -7.63084 11.91080 2.73833 -3.33380 8.89601 -5.78470 6.28117 8.68970
81.00000 1969.010 985.493 -16.360 -0.03658 -0.29357 10.95160 3.25347 -3.93066 29.75660 -1.65565 -22.21250 48.40620 0.09419 17.74980 7.88227 0.36132 -7.73723 11.11600 2.87103 -3.16347 8.38023 -5.67703 6.35738 9.02070
82.00000 1976.715 986.708 -16.431 -0.03391 -0.27930 11.08640 3.46367 -3.55320 30.48290 -1.19418 -22.82240 45.49870 0.78568 17.25990 8.12739 0.20643 -7.80558 10.33800 3.00680 -3.03235 7.88084 -5.55092 6.44072 9.35464
83.00000 1984.367 987.896 -16.431 -0.02848 -0.26577 11.22530 3.65266 -3.20743 31.08380 -0.78221 -23.52220 42.32410 1.28827 16.81770 8.24417 0.06438 -7.83851 9.56881 3.14456 -2.93518 7.39314 -5.42166 6.52625 9.68577
84.00000 1991.987 989.099 -16.349 -0.01925 -0.25147 11.36830 3.80339 -2.94523 31.56680 -0.44307 -24.20160 38.92590 1.57078 16.36270 8.20970 -0.05485 -7.83390 8.80614 3.28241 -2.85993 6.91367 -5.30991 6.59731 10.00480
85.00000 1999.525 990.112 -16.310 -0.00731 -0.23603 11.51715 3.89980 -2.84345 31.94670 -0.20525 -24.73150 35.34630 1.67552 15.86270 7.99132 -0.14513 -7.78363 8.05042 3.41979 -2.80853 6.44184 -5.22259 6.64957 10.31090
86.00000 2007.053 991.039 -16.169 0.00669 -0.21721 11.67555 3.93051 -2.91750 32.23640 -0.04632 -25.05370 31.61260 1.65415 15.34760 7.57690 -0.20194 -7.69358 7.30487 3.55485 -2.78452 5.98531 -5.15226 6.69228 10.61550
87.00000 2014.547 991.823 -15.975 0.02107 -0.19412 11.84865 3.88997 -3.12175 32.44060 0.09441 -25.18810 27.74040 1.53661 14.90860 7.00401 -0.22212 -7.58664 6.58093 3.68291 -2.76796 5.56121 -5.08064 6.72151 10.93240
88.00000 2022.037 992.560 -15.710 0.03237 -0.17052 12.04265 3.77611 -3.40876 32.56070 0.28108 -25.17050 23.75270 1.36309 14.64830 6.35744 -0.20782 -7.47274 5.90036 3.79902 -2.74633 5.19141 -4.98912 6.73418 11.26770
89.00000 2029.425 992.893 -15.567 0.03987 -0.14871 12.26055 3.59053 -3.75127 32.60570 0.56231 -25.00410 19.69260 1.20002 14.61980 5.73698 -0.16581 -7.35037 5.27992 3.89861 -2.71987 4.89552 -4.86676 6.73547 11.62260
90.00000 2036.880 993.208 -15.382 0.04401 -0.12909 12.49985 3.34175 -4.11365 32.59200 0.95470 -24.69090 15.63300 1.12750 14.83900 5.19536 -0.10497 -7.21561 4.72584 3.97451 -2.69815 4.68855 -4.70692 6.74478 11.99730
91.00000 2044.295 993.361 -15.236 0.04448 -0.11165 12.74545 3.04675 -4.45535 32.53260 1.42805 -24.23940 11.68020 1.25724 15.28950 4.71726 -0.03243 -7.07989 4.22780 4.01755 -2.68252 4.57853 -4.50746 6.78772 12.38550
92.00000 2051.693 993.365 -15.197 0.04263 -0.09730 12.97120 2.73362 -4.73539 32.43550 1.92013 -23.64900 7.95362 1.65700 15.88580 4.24324 0.04894 -6.97346 3.75788 4.02034 -2.65632 4.56713 -4.26551 6.87808 12.77340
93.00000 2059.065 993.298 -15.261 0.04073 -0.08711 13.15055 2.43882 -4.92534 32.30710 2.36455 -22.98490 4.57574 2.29340 16.51070 3.72402 0.13330 -6.92163 3.28632 3.98131 -2.59633 4.65266 -3.98004 7.00878 13.14600
94.00000 2066.490 993.167 -15.334 0.03968 -0.08168 13.27080 2.19524 -5.00992 32.16790 2.71347 -22.45460 1.68998 3.09897 17.08270 3.16188 0.20730 -6.91670 2.79725 3.90273 -2.49439 4.83370 -3.66053 7.15873 13.49470
95.00000 2073.952 992.955 -15.519 0.04065 -0.08122 13.33530 2.02406 -4.97617 32.05650 2.94630 -22.30510 -0.53491 3.94434 17.54120 2.64228 0.25990 -6.93471 2.29062 3.78156 -2.35852 5.11088 -3.31326 7.30982 13.81490
96.00000 2081.577 992.642 -15.792 0.04445 -0.08520 13.35650 1.93566 -4.81957 32.01370 3.06425 -22.62810 -1.94285 4.58340 17.79380 2.32427 0.28596 -6.96917 1.77701 3.60785 -2.18797 5.48493 -2.92752 7.45434 14.09420
97.00000 2088.693 992.149 -15.957 0.05062 -0.09163 13.34735 1.93058 -4.56907 32.06150 3.07936 -23.26700 -2.44736 4.75500 17.74160 2.35640 0.28432 -7.02913 1.26919 3.37343 -1.97379 5.95326 -2.48149 7.59060 14.31170
98.00000 2096.055 991.661 -16.284 0.05807 -0.09786 13.31720 2.00044 -4.28957 32.19240 3.00786 -23.92670 -2.06783 4.36604 17.36090 2.78727 0.25497 -7.12530 0.77566 3.08104 -1.70687 6.51029 -1.96390 7.71834 14.44720
99.00000 2103.455 991.109 -16.646 0.06520 -0.10118 13.27550 2.12249 -4.05686 32.37830 2.87570 -24.34400 -0.93099 3.54734 16.73250 3.52913 0.19915 -7.27008 0.30433 2.74027 -1.38279 7.14946 -1.37411 7.84664 14.48240
100.00000 2110.878 990.495 -17.023 0.07027 -0.09818 13.23825 2.26320 -3.91189 32.58160 2.71813 -24.40420 0.73429 2.53808 15.99310 4.34142 0.12116 -7.47550 -0.13059 2.35784 -1.00185 7.86409 -0.71854 7.99050 14.40010
0.00000 2118.265 989.700 -17.450 0.00560 0.02025 15.09405 -0.08146 -0.55032 31.60720 4.46724 -37.04060 4.63958 10.91960 22.38790 5.00369 0.05042 -4.45865 0.12653 -0.23313 -13.16490 11.85770 5.62365 17.40170 17.27090
1.00000 2125.662 988.920 -17.818 -0.00119 0.02209 15.08510 0.10658 -0.68953 31.73110 4.46255 -36.62090 6.00384 10.48960 21.49030 5.01354 -0.22577 -4.58726 -0.07542 -0.48551 -13.40010 12.94270 6.36413 18.16030 16.79000
2.00000 2133.178 988.103 -18.284 -0.00333 0.01930 15.06615 0.35269 -0.76775 31.82210 4.49907 -36.06090 7.53366 10.02060 20.21100 4.58869 -0.53685 -4.71694 -0.22068 -0.76902 -13.76040 14.16870 7.12227 19.03680 16.11440
3.00000 2140.725 987.318 -18.778 0.00091 0.00428 15.05285 0.64468 -0.74054 31.84780 4.59282 -35.60020 9.00054 9.65792 18.89320 3.74908 -0.87787 -4.84486 -0.26687 -1.09317 -14.25680 15.57490 7.85454 20.03970 15.22240
4.00000 2148.293 986.474 -19.236 0.01155 -0.02585 15.04735 0.97466 -0.61477 31.79900 4.71256 -35.33800 10.30140 9.35627 17.90910 2.78613 -1.24371 -4.97647 -0.17424 -1.45934 -14.87410 17.20500 8.49135 21.14700 14.09450
5.00000 2155.948 985.598 -19.729 0.02666 -0.06875 15.03150 1.33867 -0.44151 31.67880 4.82411 -35.16910 11.46380 8.95578 17.39570 2.06977 -1.63279 -5.11884 0.07711 -1.85365 -15.58370 19.09850 8.94847 22.31970 12.71270
6.00000 2163.682 984.703 -20.266 0.04289 -0.11897 14.98095 1.73628 -0.27681 31.49550 4.92254 -34.93160 12.57990 8.32829 17.24160 1.82011 -2.04652 -5.27405 0.48901 -2.25083 -16.37480 21.28420 9.13505 23.53270 11.06370
7.00000 2171.485 983.798 -20.840 0.05512 -0.16840 14.88815 2.16806 -0.13972 31.25500 5.01299 -34.55090 13.71460 7.43515 17.22880 2.09184 -2.48479 -5.43541 1.06534 -2.62943 -17.26670 23.77150 8.96621 24.79500 9.13994
8.00000 2179.432 982.799 -21.544 0.05777 -0.20818 14.76925 2.63105 -0.00947 30.95860 5.09031 -34.02490 14.85650 6.37402 17.12360 2.81670 -2.94052 -5.58908 1.82421 -2.98792 -18.26720 26.54480 8.37451 26.12000 6.95221
9.00000 2187.432 981.768 -22.288 0.04771 -0.23175 14.65115 3.11292 0.13823 30.60460 5.13632 -33.36590 15.93110 5.30878 16.76740 3.82710 -3.39558 -5.72143 2.78636 -3.35085 -19.30550 29.56310 7.34064 27.45470 4.55008
10.00000 2195.545 980.733 -23.022 0.02701 -0.23869 14.55440 3.59151 0.30622 30.18770 5.13606 -32.61860 16.84740 4.32897 16.16370 4.92950 -3.81852 -5.82801 3.95759 -3.76177 -20.21900 32.76600 5.93377 28.64370 2.03833
11.00000 2203.755 979.576 -23.792 0.00195 -0.23556 14.48425 4.04282 0.47724 29.69620 5.09427 -31.90890 17.54040 3.46251 15.47430 5.98428 -4.17276 -5.91777 5.32002 -4.26265 -20.82560 36.08580 4.32696 29.47360 -0.42072
12.00000 2212.073 978.435 -24.543 -0.02098 -0.23223 14.43565 4.44925 0.62699 29.12070 5.02928 -31.39550 17.99230 2.74506 14.90030 6.92982 -4.42885 -6.00955 6.83750 -4.87012 -21.02720 39.45730 2.75978 29.76710 -2.62358
13.00000 2220.440 977.231 -25.273 -0.03692 -0.23770 14.40215 4.80161 0.74262 28.46160 4.95895 -31.15860 18.22550 2.21398 14.55280 7.75996 -4.56952 -6.12067 8.46710 -5.56113 -20.86760 42.81710 1.44931 29.45870 -4.35811
14.00000 2228.880 976.011 -25.949 -0.04313 -0.25702 14.37865 5.09560 0.83217 27.72610 4.89641 -31.16480 18.28130 1.87880 14.43010 8.49228 -4.59039 -6.25886 10.16520 -6.27732 -20.51550 46.09500 0.50574 28.61440 -5.44078
15.00000 2237.463 974.754 -26.671 -0.04000 -0.28861 14.36030 5.32753 0.91693 26.92280 4.84887 -31.31100 18.20240 1.71827 14.46220 9.14726 -4.50018 -6.41678 11.88960 -6.94262 -20.19840 49.21150 -0.09921 27.40880 -5.75027
16.00000 2245.977 973.548 -27.301 -0.03082 -0.32468 14.34265 5.49425 1.01330 26.05930 4.81709 -31.47640 18.02140 1.69190 14.54950 9.74009 -4.32038 -6.56995 13.60260 -7.48351 -20.11430 52.08110 -0.49739 26.06770 -5.28086
17.00000 2254.658 972.311 -27.971 -0.02029 -0.35558 14.32260 5.59733 1.12343 25.14370 4.79639 -31.57050 17.75860 1.75147 14.60760 10.28040 -4.07992 -6.68576 15.27570 -7.84776 -20.35910 54.62220 -0.82817 24.79500 -4.18818
18.00000 2263.310 971.106 -28.586 -0.01348 -0.37542 14.29800 5.64344 1.24717 24.18480 4.77966 -31.56580 17.42470 1.85269 14.59980 10.77420 -3.80592 -6.74504 16.89190 -8.02368 -20.90700 56.77450 -1.14545 23.72280 -2.74803
19.00000 2272.053 969.910 -29.142 -0.01442 -0.38429 14.26805 5.64110 1.39005 23.19080 4.75936 -31.49000 17.02610 1.96354 14.53210 11.22670 -3.51593 -6.75451 18.44560 -8.04477 -21.64360 58.51170 -1.41301 22.89680 -1.24037
20.00000 2280.818 968.725 -29.691 -0.02290 -0.38504 14.23365 5.60072 1.54960 22.16950 4.72630 -31.38590 16.57050 2.06484 14.42870 11.64350 -3.21537 -6.74337 19.94060 -7.97281 -22.42650 59.83980 -1.56812 22.29720 0.14775
21.00000 2289.653 967.471 -30.253 -0.03507 -0.37955 14.19625 5.53355 1.72041 21.12490 4.67388 -31.28890 16.06490 2.14620 14.31140 12.03000 -2.90329 -6.74498 21.38330 -7.86797 -23.14330 60.78440 -1.58343 21.87800 1.34883
22.00000 2298.510 966.263 -30.805 -0.04754 -0.36899 14.15470 5.44843 1.89324 20.05550 4.59850 -31.20770 15.51680 2.20300 14.19150 12.39210 -2.57991 -6.77534 22.77530 -7.76469 -23.73880 61.37500 -1.48447 21.59650 2.38134
23.00000 2307.447 965.040 -31.423 -0.05754 -0.35411 14.10585 5.35281 2.05377 18.96060 4.50053 -31.12960 14.93630 2.23567 14.07290 12.73780 -2.24863 -6.82789 24.10970 -7.66730 -24.20330 61.63470 -1.32024 21.41640 3.29286
24.00000 2316.535 963.824 -31.986 -0.06157 -0.33472 14.04685 5.25241 2.19247 17.84480 4.38848 -31.03750 14.33360 2.24984 13.95300 13.07640 -1.91318 -6.88072 25.37480 -7.55932 -24.55340 61.57880 -1.13947 21.30840 4.11906
25.00000 2325.767 962.501 -32.559 -0.05856 -0.31068 13.97705 5.14623 2.30404 16.71510 4.27459 -30.92100 13.71900 2.25896 13.83250 13.41380 -1.57749 -6.91138 26.56020 -7.42013 -24.81370 61.21740 -0.97605 21.24740 4.86917
